<svg id="Layer_1" data-name="Layer 1" xmlns="http://www.w3.org/2000/svg" viewBox="0 0 32 32"><title>Editdocument_32-01</title><path d="M4,23L2.5,29.5,9,28,29,8a2.13,2.13,0,0,0,0-3,15.16,15.16,0,0,0-2.33-2.49C25.17,1.15,24,3,24,3Z" fill="#fff"/><path d="M25.72,3h0m0,0,0.1,0.06,0.06,0.06,3,3L29,6.27h0a0.52,0.52,0,0,1-.1.18L7.73,27.62l-4.18.84,0.84-4.18L25.58,3.08l0,0L25.7,3m0-2a2.32,2.32,0,0,0-1.54.67L2.54,23.28,1,31l7.72-1.54L30.34,7.84a2.17,2.17,0,0,0,0-3.09L27.25,1.68l-0.12-.11A2.21,2.21,0,0,0,25.71,1h0Zm1.42,0.56h0Zm0,0,0.11,0.11,0,0,0,0-0.11-.09h0Z" fill="#d7853c"/><path d="M27.25,10.39a1,1,0,0,1-.71-0.29L21.91,5.46A1,1,0,0,1,23.32,4L28,8.68A1,1,0,0,1,27.25,10.39Z" fill="#d7853c"/></svg>