<svg id="Layer_1" data-name="Layer 1" xmlns="http://www.w3.org/2000/svg" viewBox="0 0 32 32"><title>Readdocument_32</title><rect x="3" y="6" width="26" height="23" fill="#fff"/><path d="M6,26.21C13.25,26.08,16,30,16,30V5A15.27,15.27,0,0,0,6,1V26.21Z" fill="#fff"/><path d="M7,2a13.47,13.47,0,0,1,8,4V27.75c-1.67-1.25-4.33-2.17-8-2.64V2M5,0V27c6.5-.08,12,4,12,4V5A16.73,16.73,0,0,0,5,0H5Z" fill="#9da2a5"/><path d="M26,26.21C18.75,26.08,16,30,16,30V5A15.27,15.27,0,0,1,26,1V26.21Z" fill="#fff"/><path d="M25,2V25.11c-3.67.47-6.33,1.39-8,2.64V6a13.47,13.47,0,0,1,8-4m2-2A16.73,16.73,0,0,0,15,5V31s5.5-4.08,12-4V0h0Z" fill="#9da2a5"/><path d="M30,4H28V6h1V29H3V6H4V4H2A1,1,0,0,0,1,5V30a1,1,0,0,0,1,1H30a1,1,0,0,0,1-1V5A1,1,0,0,0,30,4Z" fill="#9da2a5"/></svg>